<?xml version="1.0" standalone="no"?>
<!DOCTYPE svg PUBLIC "-//W3C//DTD SVG 20000303 Stylable//EN" "http://www.w3.org/TR/2000/03/WD-SVG-20000303/DTD/svg-20000303-stylable.dtd">
<svg width ="549" height ="585" viewBox ="0 0 549 585">
<defs><marker id="Triangle" viewBox="0 0 10 10" refX="0" refY="5"
markerWidth="1.25" markerHeight="1.75" orient="auto">
<path d="M 0 0 L 10 5 L 0 10 z"/></marker></defs>
<g>
<g>
<path style=" fill:#000000; stroke:none; fill-rule:evenodd;" d="M177 585L283 585L283 461L354 461L407 390L283 390L283 89L230 89L0 390L0 461L177 461L177 585ZM177 390L177 206L35 390L177 390Z"/>
<path style=" fill:#000000; stroke:none;" d="M549 426C549 396 525 372 496 372C466 372 443 396 443 426C443 455 466 479 496 479C525 479 549 455 549 426Z"/>
<path style=" fill:#000000; stroke:none;" d="M549 302C549 272 525 248 496 248C466 248 443 272 443 302C443 331 466 355 496 355C525 355 549 331 549 302Z"/>
<path style=" fill:#000000; stroke:none;" d="M549 178C549 148 525 124 496 124C466 124 443 148 443 178C443 207 466 231 496 231C525 231 549 207 549 178Z"/>
<path style=" fill:#000000; stroke:none;" d="M549 54C549 24 525 0 496 0C466 0 443 24 443 54C443 83 466 107 496 107C525 107 549 83 549 54Z"/>
</g>
</g>
</svg>
